<svg width="25" height="24" viewBox="0 0 25 24" fill="none" xmlns="http://www.w3.org/2000/svg">
<g opacity="0.3">
<path d="M20.4827 21L14.123 14.7C13.6183 15.1 13.0379 15.4167 12.3817 15.65C11.7256 15.8833 11.0273 16 10.2871 16C8.45321 16 6.90116 15.3708 5.63092 14.1125C4.36068 12.8542 3.72556 11.3167 3.72556 9.5C3.72556 7.68333 4.36068 6.14583 5.63092 4.8875C6.90116 3.62917 8.45321 3 10.2871 3C12.1209 3 13.673 3.62917 14.9432 4.8875C16.2135 6.14583 16.8486 7.68333 16.8486 9.5C16.8486 10.2333 16.7308 10.925 16.4953 11.575C16.2597 12.225 15.9401 12.8 15.5363 13.3L21.8959 19.6L20.4827 21ZM10.2871 14C11.5489 14 12.6215 13.5625 13.5047 12.6875C14.388 11.8125 14.8297 10.75 14.8297 9.5C14.8297 8.25 14.388 7.1875 13.5047 6.3125C12.6215 5.4375 11.5489 5 10.2871 5C9.02524 5 7.95268 5.4375 7.0694 6.3125C6.18612 7.1875 5.74448 8.25 5.74448 9.5C5.74448 10.75 6.18612 11.8125 7.0694 12.6875C7.95268 13.5625 9.02524 14 10.2871 14Z" fill="#1D1B20"/>
</g>
</svg>
